<mxfile host="Electron" agent="Mozilla/5.0 (Windows NT 10.0; Win64; x64) AppleWebKit/537.36 (KHTML, like Gecko) draw.io/28.2.5 Chrome/138.0.7204.251 Electron/37.6.1 Safari/537.36" version="28.2.5">
  <diagram name="PÃ¡gina-1" id="vxjVTH7srJSBrnQ-GyND">
    <mxGraphModel dx="3157" dy="1534" grid="1" gridSize="10" guides="1" tooltips="1" connect="1" arrows="1" fold="1" page="1" pageScale="1" pageWidth="827" pageHeight="1169" math="0" shadow="0">
      <root>
        <mxCell id="0" />
        <mxCell id="1" parent="0" />
        <mxCell id="anPYsyrNwaSZYlofxPhP-34" style="edgeStyle=orthogonalEdgeStyle;rounded=0;orthogonalLoop=1;jettySize=auto;html=1;exitX=1;exitY=0.5;exitDx=0;exitDy=0;entryX=0.016;entryY=0.554;entryDx=0;entryDy=0;entryPerimeter=0;" parent="1" source="uNihy_RNvtRahRgvsHqt-1" target="uNihy_RNvtRahRgvsHqt-10" edge="1">
          <mxGeometry relative="1" as="geometry">
            <mxPoint x="200" y="2170" as="targetPoint" />
            <mxPoint x="1030" y="2355" as="sourcePoint" />
            <Array as="points">
              <mxPoint x="980" y="2350" />
              <mxPoint x="1060" y="2350" />
              <mxPoint x="1060" y="2550" />
              <mxPoint x="400" y="2550" />
              <mxPoint x="400" y="2172" />
            </Array>
          </mxGeometry>
        </mxCell>
        <mxCell id="uNihy_RNvtRahRgvsHqt-1" value="Exec" style="ellipse;whiteSpace=wrap;html=1;" parent="1" vertex="1">
          <mxGeometry x="854" y="2290" width="126" height="130" as="geometry" />
        </mxCell>
        <mxCell id="anPYsyrNwaSZYlofxPhP-29" style="edgeStyle=orthogonalEdgeStyle;rounded=0;orthogonalLoop=1;jettySize=auto;html=1;entryX=0;entryY=1;entryDx=0;entryDy=0;" parent="1" source="uNihy_RNvtRahRgvsHqt-2" target="anPYsyrNwaSZYlofxPhP-26" edge="1">
          <mxGeometry relative="1" as="geometry">
            <Array as="points">
              <mxPoint x="949" y="2100" />
            </Array>
          </mxGeometry>
        </mxCell>
        <mxCell id="uNihy_RNvtRahRgvsHqt-2" value="" style="ellipse;whiteSpace=wrap;html=1;" parent="1" vertex="1">
          <mxGeometry x="700" y="2090" width="76" height="80" as="geometry" />
        </mxCell>
        <mxCell id="anPYsyrNwaSZYlofxPhP-31" style="edgeStyle=orthogonalEdgeStyle;rounded=0;orthogonalLoop=1;jettySize=auto;html=1;" parent="1" source="uNihy_RNvtRahRgvsHqt-3" target="anPYsyrNwaSZYlofxPhP-26" edge="1">
          <mxGeometry relative="1" as="geometry">
            <Array as="points">
              <mxPoint x="880" y="2240" />
              <mxPoint x="880" y="2015" />
            </Array>
          </mxGeometry>
        </mxCell>
        <mxCell id="uNihy_RNvtRahRgvsHqt-3" value="" style="ellipse;whiteSpace=wrap;html=1;" parent="1" vertex="1">
          <mxGeometry x="700" y="2200" width="76" height="80" as="geometry" />
        </mxCell>
        <mxCell id="uNihy_RNvtRahRgvsHqt-4" value="" style="ellipse;whiteSpace=wrap;html=1;" parent="1" vertex="1">
          <mxGeometry x="700" y="1960" width="76" height="80" as="geometry" />
        </mxCell>
        <mxCell id="anPYsyrNwaSZYlofxPhP-27" style="edgeStyle=orthogonalEdgeStyle;rounded=0;orthogonalLoop=1;jettySize=auto;html=1;" parent="1" source="uNihy_RNvtRahRgvsHqt-5" target="anPYsyrNwaSZYlofxPhP-26" edge="1">
          <mxGeometry relative="1" as="geometry">
            <Array as="points">
              <mxPoint x="796" y="1920" />
              <mxPoint x="796" y="2015" />
            </Array>
          </mxGeometry>
        </mxCell>
        <mxCell id="uNihy_RNvtRahRgvsHqt-5" value="" style="ellipse;whiteSpace=wrap;html=1;" parent="1" vertex="1">
          <mxGeometry x="586" y="1920" width="76" height="80" as="geometry" />
        </mxCell>
        <mxCell id="uNihy_RNvtRahRgvsHqt-8" value="" style="ellipse;whiteSpace=wrap;html=1;" parent="1" vertex="1">
          <mxGeometry x="570" y="2320" width="76" height="80" as="geometry" />
        </mxCell>
        <mxCell id="anPYsyrNwaSZYlofxPhP-6" style="edgeStyle=orthogonalEdgeStyle;rounded=0;orthogonalLoop=1;jettySize=auto;html=1;entryX=0.5;entryY=1;entryDx=0;entryDy=0;" parent="1" source="uNihy_RNvtRahRgvsHqt-9" target="uNihy_RNvtRahRgvsHqt-1" edge="1">
          <mxGeometry relative="1" as="geometry">
            <mxPoint x="950" y="2230" as="targetPoint" />
          </mxGeometry>
        </mxCell>
        <mxCell id="uNihy_RNvtRahRgvsHqt-9" value="" style="ellipse;whiteSpace=wrap;html=1;" parent="1" vertex="1">
          <mxGeometry x="680" y="2300" width="76" height="80" as="geometry" />
        </mxCell>
        <mxCell id="uNihy_RNvtRahRgvsHqt-12" style="edgeStyle=orthogonalEdgeStyle;rounded=0;orthogonalLoop=1;jettySize=auto;html=1;" parent="1" source="uNihy_RNvtRahRgvsHqt-10" target="uNihy_RNvtRahRgvsHqt-5" edge="1">
          <mxGeometry relative="1" as="geometry" />
        </mxCell>
        <mxCell id="uNihy_RNvtRahRgvsHqt-14" style="edgeStyle=orthogonalEdgeStyle;rounded=0;orthogonalLoop=1;jettySize=auto;html=1;entryX=0;entryY=0.5;entryDx=0;entryDy=0;" parent="1" source="uNihy_RNvtRahRgvsHqt-10" target="uNihy_RNvtRahRgvsHqt-2" edge="1">
          <mxGeometry relative="1" as="geometry" />
        </mxCell>
        <mxCell id="uNihy_RNvtRahRgvsHqt-16" style="edgeStyle=orthogonalEdgeStyle;rounded=0;orthogonalLoop=1;jettySize=auto;html=1;entryX=0;entryY=0;entryDx=0;entryDy=0;" parent="1" source="uNihy_RNvtRahRgvsHqt-10" target="uNihy_RNvtRahRgvsHqt-8" edge="1">
          <mxGeometry relative="1" as="geometry" />
        </mxCell>
        <mxCell id="uNihy_RNvtRahRgvsHqt-10" value="Waiting (kbhit)" style="ellipse;whiteSpace=wrap;html=1;" parent="1" vertex="1">
          <mxGeometry x="480" y="2100" width="126" height="130" as="geometry" />
        </mxCell>
        <mxCell id="uNihy_RNvtRahRgvsHqt-11" value="mostrarTablero()" style="shape=process;whiteSpace=wrap;html=1;backgroundOutline=1;" parent="1" vertex="1">
          <mxGeometry x="476" y="2180" width="130" height="40" as="geometry" />
        </mxCell>
        <mxCell id="uNihy_RNvtRahRgvsHqt-13" style="edgeStyle=orthogonalEdgeStyle;rounded=0;orthogonalLoop=1;jettySize=auto;html=1;entryX=0.066;entryY=0.788;entryDx=0;entryDy=0;entryPerimeter=0;" parent="1" source="uNihy_RNvtRahRgvsHqt-10" target="uNihy_RNvtRahRgvsHqt-4" edge="1">
          <mxGeometry relative="1" as="geometry">
            <Array as="points">
              <mxPoint x="670" y="2110" />
              <mxPoint x="670" y="2023" />
            </Array>
          </mxGeometry>
        </mxCell>
        <mxCell id="uNihy_RNvtRahRgvsHqt-15" style="edgeStyle=orthogonalEdgeStyle;rounded=0;orthogonalLoop=1;jettySize=auto;html=1;entryX=0.066;entryY=0.425;entryDx=0;entryDy=0;entryPerimeter=0;" parent="1" source="uNihy_RNvtRahRgvsHqt-10" target="uNihy_RNvtRahRgvsHqt-3" edge="1">
          <mxGeometry relative="1" as="geometry" />
        </mxCell>
        <mxCell id="uNihy_RNvtRahRgvsHqt-17" style="edgeStyle=orthogonalEdgeStyle;rounded=0;orthogonalLoop=1;jettySize=auto;html=1;entryX=0.355;entryY=0.088;entryDx=0;entryDy=0;entryPerimeter=0;exitX=0.675;exitY=0.946;exitDx=0;exitDy=0;exitPerimeter=0;" parent="1" source="uNihy_RNvtRahRgvsHqt-10" target="uNihy_RNvtRahRgvsHqt-9" edge="1">
          <mxGeometry relative="1" as="geometry">
            <Array as="points">
              <mxPoint x="565" y="2230" />
              <mxPoint x="640" y="2230" />
              <mxPoint x="640" y="2307" />
            </Array>
          </mxGeometry>
        </mxCell>
        <mxCell id="uNihy_RNvtRahRgvsHqt-18" value="W" style="text;html=1;align=center;verticalAlign=middle;whiteSpace=wrap;rounded=0;" parent="1" vertex="1">
          <mxGeometry x="560" y="2020" width="60" height="30" as="geometry" />
        </mxCell>
        <mxCell id="uNihy_RNvtRahRgvsHqt-19" value="A" style="text;html=1;align=center;verticalAlign=middle;whiteSpace=wrap;rounded=0;" parent="1" vertex="1">
          <mxGeometry x="606" y="2080" width="60" height="30" as="geometry" />
        </mxCell>
        <mxCell id="uNihy_RNvtRahRgvsHqt-20" value="S" style="text;html=1;align=center;verticalAlign=middle;whiteSpace=wrap;rounded=0;" parent="1" vertex="1">
          <mxGeometry x="646" y="2110" width="60" height="30" as="geometry" />
        </mxCell>
        <mxCell id="uNihy_RNvtRahRgvsHqt-21" value="D" style="text;html=1;align=center;verticalAlign=middle;whiteSpace=wrap;rounded=0;" parent="1" vertex="1">
          <mxGeometry x="646" y="2200" width="60" height="30" as="geometry" />
        </mxCell>
        <mxCell id="uNihy_RNvtRahRgvsHqt-22" value="E" style="text;html=1;align=center;verticalAlign=middle;whiteSpace=wrap;rounded=0;" parent="1" vertex="1">
          <mxGeometry x="540" y="2280" width="60" height="30" as="geometry" />
        </mxCell>
        <mxCell id="uNihy_RNvtRahRgvsHqt-23" value="Q" style="text;html=1;align=center;verticalAlign=middle;whiteSpace=wrap;rounded=0;" parent="1" vertex="1">
          <mxGeometry x="624" y="2270" width="60" height="30" as="geometry" />
        </mxCell>
        <mxCell id="uNihy_RNvtRahRgvsHqt-24" value="ejecutarJugada()" style="shape=process;whiteSpace=wrap;html=1;backgroundOutline=1;" parent="1" vertex="1">
          <mxGeometry x="950" y="2300" width="130" height="40" as="geometry" />
        </mxCell>
        <mxCell id="anPYsyrNwaSZYlofxPhP-8" value="ejecutarJugada()" style="swimlane;fontStyle=0;childLayout=stackLayout;horizontal=1;startSize=30;horizontalStack=0;resizeParent=1;resizeParentMax=0;resizeLast=0;collapsible=1;marginBottom=0;whiteSpace=wrap;html=1;" parent="1" vertex="1">
          <mxGeometry x="10" y="2220" width="140" height="120" as="geometry" />
        </mxCell>
        <mxCell id="anPYsyrNwaSZYlofxPhP-9" value="tam" style="text;strokeColor=none;fillColor=none;align=left;verticalAlign=middle;spacingLeft=4;spacingRight=4;overflow=hidden;points=[[0,0.5],[1,0.5]];portConstraint=eastwest;rotatable=0;whiteSpace=wrap;html=1;" parent="anPYsyrNwaSZYlofxPhP-8" vertex="1">
          <mxGeometry y="30" width="140" height="30" as="geometry" />
        </mxCell>
        <mxCell id="anPYsyrNwaSZYlofxPhP-10" value="matriz (*)" style="text;strokeColor=none;fillColor=none;align=left;verticalAlign=middle;spacingLeft=4;spacingRight=4;overflow=hidden;points=[[0,0.5],[1,0.5]];portConstraint=eastwest;rotatable=0;whiteSpace=wrap;html=1;" parent="anPYsyrNwaSZYlofxPhP-8" vertex="1">
          <mxGeometry y="60" width="140" height="30" as="geometry" />
        </mxCell>
        <mxCell id="anPYsyrNwaSZYlofxPhP-11" value="Jugada(*)" style="text;strokeColor=none;fillColor=none;align=left;verticalAlign=middle;spacingLeft=4;spacingRight=4;overflow=hidden;points=[[0,0.5],[1,0.5]];portConstraint=eastwest;rotatable=0;whiteSpace=wrap;html=1;" parent="anPYsyrNwaSZYlofxPhP-8" vertex="1">
          <mxGeometry y="90" width="140" height="30" as="geometry" />
        </mxCell>
        <mxCell id="anPYsyrNwaSZYlofxPhP-21" value="" style="shape=trapezoid;perimeter=trapezoidPerimeter;whiteSpace=wrap;html=1;fixedSize=1;" parent="1" vertex="1">
          <mxGeometry x="20" y="2000" width="190" height="150" as="geometry" />
        </mxCell>
        <mxCell id="anPYsyrNwaSZYlofxPhP-22" value="struct" style="text;html=1;align=center;verticalAlign=middle;whiteSpace=wrap;rounded=0;" parent="1" vertex="1">
          <mxGeometry x="90" y="2000" width="60" height="30" as="geometry" />
        </mxCell>
        <mxCell id="anPYsyrNwaSZYlofxPhP-23" value="posCursorX" style="text;html=1;align=center;verticalAlign=middle;whiteSpace=wrap;rounded=0;" parent="1" vertex="1">
          <mxGeometry x="40" y="2020" width="60" height="30" as="geometry" />
        </mxCell>
        <mxCell id="anPYsyrNwaSZYlofxPhP-24" value="posCursorY" style="text;html=1;align=center;verticalAlign=middle;whiteSpace=wrap;rounded=0;" parent="1" vertex="1">
          <mxGeometry x="40" y="2035" width="60" height="30" as="geometry" />
        </mxCell>
        <mxCell id="anPYsyrNwaSZYlofxPhP-25" value="usoPika" style="text;html=1;align=center;verticalAlign=middle;whiteSpace=wrap;rounded=0;" parent="1" vertex="1">
          <mxGeometry x="40" y="2060" width="60" height="30" as="geometry" />
        </mxCell>
        <mxCell id="anPYsyrNwaSZYlofxPhP-33" style="edgeStyle=orthogonalEdgeStyle;rounded=0;orthogonalLoop=1;jettySize=auto;html=1;entryX=0;entryY=0.5;entryDx=0;entryDy=0;" parent="1" source="anPYsyrNwaSZYlofxPhP-26" target="uNihy_RNvtRahRgvsHqt-10" edge="1">
          <mxGeometry relative="1" as="geometry">
            <mxPoint x="290" y="2150" as="targetPoint" />
            <Array as="points">
              <mxPoint x="993" y="1890" />
              <mxPoint x="400" y="1890" />
              <mxPoint x="400" y="2165" />
            </Array>
          </mxGeometry>
        </mxCell>
        <mxCell id="anPYsyrNwaSZYlofxPhP-26" value="MoveCursor" style="ellipse;whiteSpace=wrap;html=1;" parent="1" vertex="1">
          <mxGeometry x="930" y="1950" width="126" height="130" as="geometry" />
        </mxCell>
        <mxCell id="anPYsyrNwaSZYlofxPhP-28" style="edgeStyle=orthogonalEdgeStyle;rounded=0;orthogonalLoop=1;jettySize=auto;html=1;entryX=0.071;entryY=0.738;entryDx=0;entryDy=0;entryPerimeter=0;" parent="1" source="uNihy_RNvtRahRgvsHqt-4" target="anPYsyrNwaSZYlofxPhP-26" edge="1">
          <mxGeometry relative="1" as="geometry">
            <Array as="points">
              <mxPoint x="853" y="2030" />
              <mxPoint x="853" y="2046" />
            </Array>
          </mxGeometry>
        </mxCell>
        <mxCell id="anPYsyrNwaSZYlofxPhP-30" style="edgeStyle=orthogonalEdgeStyle;rounded=0;orthogonalLoop=1;jettySize=auto;html=1;entryX=0.659;entryY=0.977;entryDx=0;entryDy=0;entryPerimeter=0;" parent="1" source="uNihy_RNvtRahRgvsHqt-8" target="uNihy_RNvtRahRgvsHqt-1" edge="1">
          <mxGeometry relative="1" as="geometry">
            <Array as="points">
              <mxPoint x="608" y="2480" />
              <mxPoint x="930" y="2480" />
              <mxPoint x="930" y="2417" />
            </Array>
          </mxGeometry>
        </mxCell>
        <mxCell id="anPYsyrNwaSZYlofxPhP-32" value="moverCursor()??" style="shape=process;whiteSpace=wrap;html=1;backgroundOutline=1;" parent="1" vertex="1">
          <mxGeometry x="1030" y="1995" width="130" height="40" as="geometry" />
        </mxCell>
        <mxCell id="Cp2rk2IzvF5nBZMvR7EI-1" value="pedirJugada" style="rounded=0;whiteSpace=wrap;html=1;" parent="1" vertex="1">
          <mxGeometry x="624" y="1790" width="120" height="60" as="geometry" />
        </mxCell>
        <mxCell id="Cp2rk2IzvF5nBZMvR7EI-2" value="juega?" style="text;html=1;align=center;verticalAlign=middle;whiteSpace=wrap;rounded=0;" parent="1" vertex="1">
          <mxGeometry x="30" y="2080" width="60" height="30" as="geometry" />
        </mxCell>
        <mxCell id="Cp2rk2IzvF5nBZMvR7EI-3" value="1 : 0" style="text;html=1;align=center;verticalAlign=middle;whiteSpace=wrap;rounded=0;" parent="1" vertex="1">
          <mxGeometry x="110" y="2080" width="60" height="30" as="geometry" />
        </mxCell>
        <mxCell id="Cp2rk2IzvF5nBZMvR7EI-17" style="edgeStyle=orthogonalEdgeStyle;rounded=0;orthogonalLoop=1;jettySize=auto;html=1;entryX=0;entryY=0.5;entryDx=0;entryDy=0;" parent="1" source="Cp2rk2IzvF5nBZMvR7EI-4" target="Cp2rk2IzvF5nBZMvR7EI-15" edge="1">
          <mxGeometry relative="1" as="geometry">
            <Array as="points">
              <mxPoint x="90" y="875" />
              <mxPoint x="90" y="1115" />
            </Array>
          </mxGeometry>
        </mxCell>
        <mxCell id="Cp2rk2IzvF5nBZMvR7EI-4" value="" style="ellipse;whiteSpace=wrap;html=1;aspect=fixed;fillColor=#000000;" parent="1" vertex="1">
          <mxGeometry x="20" y="860" width="30" height="30" as="geometry" />
        </mxCell>
        <mxCell id="Cp2rk2IzvF5nBZMvR7EI-5" value="" style="rounded=1;whiteSpace=wrap;html=1;" parent="1" vertex="1">
          <mxGeometry x="120" y="770" width="710" height="750" as="geometry" />
        </mxCell>
        <mxCell id="Cp2rk2IzvF5nBZMvR7EI-7" value="&lt;font style=&quot;font-size: 24px;&quot;&gt;kbhit()&lt;/font&gt;" style="text;html=1;align=center;verticalAlign=middle;whiteSpace=wrap;rounded=0;" parent="1" vertex="1">
          <mxGeometry x="286" y="770" width="144" height="40" as="geometry" />
        </mxCell>
        <mxCell id="sk3sKBH4ImnyXqfGFYbc-2" style="edgeStyle=orthogonalEdgeStyle;rounded=0;orthogonalLoop=1;jettySize=auto;html=1;entryX=0;entryY=0.75;entryDx=0;entryDy=0;" edge="1" parent="1" source="Cp2rk2IzvF5nBZMvR7EI-8" target="sk3sKBH4ImnyXqfGFYbc-1">
          <mxGeometry relative="1" as="geometry">
            <Array as="points">
              <mxPoint x="875" y="890" />
              <mxPoint x="875" y="995" />
            </Array>
          </mxGeometry>
        </mxCell>
        <mxCell id="sk3sKBH4ImnyXqfGFYbc-4" style="edgeStyle=orthogonalEdgeStyle;rounded=0;orthogonalLoop=1;jettySize=auto;html=1;entryX=0;entryY=0.75;entryDx=0;entryDy=0;" edge="1" parent="1" source="Cp2rk2IzvF5nBZMvR7EI-8" target="sk3sKBH4ImnyXqfGFYbc-3">
          <mxGeometry relative="1" as="geometry">
            <Array as="points">
              <mxPoint x="950" y="860" />
            </Array>
          </mxGeometry>
        </mxCell>
        <mxCell id="sk3sKBH4ImnyXqfGFYbc-7" style="edgeStyle=orthogonalEdgeStyle;rounded=0;orthogonalLoop=1;jettySize=auto;html=1;entryX=0;entryY=0.5;entryDx=0;entryDy=0;" edge="1" parent="1" source="Cp2rk2IzvF5nBZMvR7EI-8" target="sk3sKBH4ImnyXqfGFYbc-5">
          <mxGeometry relative="1" as="geometry">
            <Array as="points">
              <mxPoint x="740" y="820" />
              <mxPoint x="874" y="820" />
              <mxPoint x="874" y="790" />
            </Array>
          </mxGeometry>
        </mxCell>
        <mxCell id="sk3sKBH4ImnyXqfGFYbc-8" style="edgeStyle=orthogonalEdgeStyle;rounded=0;orthogonalLoop=1;jettySize=auto;html=1;entryX=0;entryY=0.5;entryDx=0;entryDy=0;" edge="1" parent="1" source="Cp2rk2IzvF5nBZMvR7EI-8" target="sk3sKBH4ImnyXqfGFYbc-6">
          <mxGeometry relative="1" as="geometry">
            <Array as="points">
              <mxPoint x="740" y="1010" />
              <mxPoint x="874" y="1010" />
              <mxPoint x="874" y="1070" />
            </Array>
          </mxGeometry>
        </mxCell>
        <mxCell id="Cp2rk2IzvF5nBZMvR7EI-8" value="Se mueve el cursor" style="rounded=1;whiteSpace=wrap;html=1;" parent="1" vertex="1">
          <mxGeometry x="660" y="840" width="120" height="60" as="geometry" />
        </mxCell>
        <mxCell id="sk3sKBH4ImnyXqfGFYbc-54" style="edgeStyle=orthogonalEdgeStyle;rounded=0;orthogonalLoop=1;jettySize=auto;html=1;" edge="1" parent="1" source="Cp2rk2IzvF5nBZMvR7EI-12" target="sk3sKBH4ImnyXqfGFYbc-53">
          <mxGeometry relative="1" as="geometry" />
        </mxCell>
        <mxCell id="Cp2rk2IzvF5nBZMvR7EI-12" value="Evaluando jugada especial" style="rounded=1;whiteSpace=wrap;html=1;" parent="1" vertex="1">
          <mxGeometry x="646" y="1205" width="120" height="60" as="geometry" />
        </mxCell>
        <mxCell id="sk3sKBH4ImnyXqfGFYbc-44" style="edgeStyle=orthogonalEdgeStyle;rounded=0;orthogonalLoop=1;jettySize=auto;html=1;entryX=0.5;entryY=1;entryDx=0;entryDy=0;" edge="1" parent="1" source="Cp2rk2IzvF5nBZMvR7EI-14" target="sk3sKBH4ImnyXqfGFYbc-27">
          <mxGeometry relative="1" as="geometry" />
        </mxCell>
        <mxCell id="Cp2rk2IzvF5nBZMvR7EI-14" value="Tiempo Terminado" style="rounded=1;whiteSpace=wrap;html=1;" parent="1" vertex="1">
          <mxGeometry x="294" y="1360" width="120" height="60" as="geometry" />
        </mxCell>
        <mxCell id="sk3sKBH4ImnyXqfGFYbc-50" style="edgeStyle=orthogonalEdgeStyle;rounded=0;orthogonalLoop=1;jettySize=auto;html=1;entryX=0;entryY=0.5;entryDx=0;entryDy=0;" edge="1" parent="1" source="Cp2rk2IzvF5nBZMvR7EI-15" target="sk3sKBH4ImnyXqfGFYbc-48">
          <mxGeometry relative="1" as="geometry" />
        </mxCell>
        <mxCell id="Cp2rk2IzvF5nBZMvR7EI-15" value="" style="rhombus;whiteSpace=wrap;html=1;" parent="1" vertex="1">
          <mxGeometry x="206" y="1090" width="54" height="50" as="geometry" />
        </mxCell>
        <mxCell id="Cp2rk2IzvF5nBZMvR7EI-21" style="edgeStyle=orthogonalEdgeStyle;rounded=0;orthogonalLoop=1;jettySize=auto;html=1;" parent="1" source="Cp2rk2IzvF5nBZMvR7EI-20" target="Cp2rk2IzvF5nBZMvR7EI-15" edge="1">
          <mxGeometry relative="1" as="geometry" />
        </mxCell>
        <mxCell id="Cp2rk2IzvF5nBZMvR7EI-22" style="edgeStyle=orthogonalEdgeStyle;rounded=0;orthogonalLoop=1;jettySize=auto;html=1;entryX=0;entryY=0.75;entryDx=0;entryDy=0;" parent="1" source="Cp2rk2IzvF5nBZMvR7EI-20" target="Cp2rk2IzvF5nBZMvR7EI-14" edge="1">
          <mxGeometry relative="1" as="geometry">
            <Array as="points">
              <mxPoint x="157" y="1405" />
            </Array>
          </mxGeometry>
        </mxCell>
        <mxCell id="Cp2rk2IzvF5nBZMvR7EI-20" value="" style="rhombus;whiteSpace=wrap;html=1;" parent="1" vertex="1">
          <mxGeometry x="130" y="1090" width="54" height="50" as="geometry" />
        </mxCell>
        <mxCell id="Cp2rk2IzvF5nBZMvR7EI-23" value="Se ingresa WASD" style="text;html=1;align=center;verticalAlign=middle;whiteSpace=wrap;rounded=0;" parent="1" vertex="1">
          <mxGeometry x="170" y="985" width="60" height="30" as="geometry" />
        </mxCell>
        <mxCell id="Cp2rk2IzvF5nBZMvR7EI-24" value="Se ingresa QE" style="text;html=1;align=center;verticalAlign=middle;whiteSpace=wrap;rounded=0;" parent="1" vertex="1">
          <mxGeometry x="276" y="1080" width="60" height="30" as="geometry" />
        </mxCell>
        <mxCell id="Cp2rk2IzvF5nBZMvR7EI-25" value="No se ingresa nada" style="text;html=1;align=center;verticalAlign=middle;whiteSpace=wrap;rounded=0;" parent="1" vertex="1">
          <mxGeometry x="184" y="1360" width="60" height="30" as="geometry" />
        </mxCell>
        <mxCell id="sk3sKBH4ImnyXqfGFYbc-34" style="edgeStyle=orthogonalEdgeStyle;rounded=0;orthogonalLoop=1;jettySize=auto;html=1;entryX=0;entryY=0.5;entryDx=0;entryDy=0;" edge="1" parent="1" source="sk3sKBH4ImnyXqfGFYbc-1" target="sk3sKBH4ImnyXqfGFYbc-33">
          <mxGeometry relative="1" as="geometry" />
        </mxCell>
        <mxCell id="sk3sKBH4ImnyXqfGFYbc-1" value="posCusorY-=1" style="rounded=1;whiteSpace=wrap;html=1;" vertex="1" parent="1">
          <mxGeometry x="950" y="950" width="120" height="60" as="geometry" />
        </mxCell>
        <mxCell id="sk3sKBH4ImnyXqfGFYbc-32" style="edgeStyle=orthogonalEdgeStyle;rounded=0;orthogonalLoop=1;jettySize=auto;html=1;entryX=0;entryY=0.5;entryDx=0;entryDy=0;" edge="1" parent="1" source="sk3sKBH4ImnyXqfGFYbc-3" target="sk3sKBH4ImnyXqfGFYbc-30">
          <mxGeometry relative="1" as="geometry" />
        </mxCell>
        <mxCell id="sk3sKBH4ImnyXqfGFYbc-3" value="posCursorX-=1" style="rounded=1;whiteSpace=wrap;html=1;" vertex="1" parent="1">
          <mxGeometry x="950" y="855" width="120" height="60" as="geometry" />
        </mxCell>
        <mxCell id="sk3sKBH4ImnyXqfGFYbc-31" style="edgeStyle=orthogonalEdgeStyle;rounded=0;orthogonalLoop=1;jettySize=auto;html=1;entryX=1;entryY=0;entryDx=0;entryDy=0;" edge="1" parent="1" source="sk3sKBH4ImnyXqfGFYbc-5" target="sk3sKBH4ImnyXqfGFYbc-30">
          <mxGeometry relative="1" as="geometry" />
        </mxCell>
        <mxCell id="sk3sKBH4ImnyXqfGFYbc-5" value="posCursorY += 1" style="rounded=1;whiteSpace=wrap;html=1;" vertex="1" parent="1">
          <mxGeometry x="947" y="760" width="120" height="60" as="geometry" />
        </mxCell>
        <mxCell id="sk3sKBH4ImnyXqfGFYbc-38" style="edgeStyle=orthogonalEdgeStyle;rounded=0;orthogonalLoop=1;jettySize=auto;html=1;entryX=0;entryY=0.5;entryDx=0;entryDy=0;" edge="1" parent="1" source="sk3sKBH4ImnyXqfGFYbc-6" target="sk3sKBH4ImnyXqfGFYbc-36">
          <mxGeometry relative="1" as="geometry">
            <Array as="points">
              <mxPoint x="1007" y="1130" />
              <mxPoint x="1127" y="1130" />
              <mxPoint x="1127" y="1180" />
            </Array>
          </mxGeometry>
        </mxCell>
        <mxCell id="sk3sKBH4ImnyXqfGFYbc-6" value="posCursorX+=1" style="rounded=1;whiteSpace=wrap;html=1;" vertex="1" parent="1">
          <mxGeometry x="947" y="1040" width="120" height="60" as="geometry" />
        </mxCell>
        <mxCell id="sk3sKBH4ImnyXqfGFYbc-10" value="Se ingresa A" style="text;html=1;align=center;verticalAlign=middle;whiteSpace=wrap;rounded=0;" vertex="1" parent="1">
          <mxGeometry x="868" y="830" width="60" height="30" as="geometry" />
        </mxCell>
        <mxCell id="sk3sKBH4ImnyXqfGFYbc-11" value="Se ingresa S" style="text;html=1;align=center;verticalAlign=middle;whiteSpace=wrap;rounded=0;" vertex="1" parent="1">
          <mxGeometry x="884" y="965" width="60" height="30" as="geometry" />
        </mxCell>
        <mxCell id="sk3sKBH4ImnyXqfGFYbc-12" value="Se ingresa D" style="text;html=1;align=center;verticalAlign=middle;whiteSpace=wrap;rounded=0;" vertex="1" parent="1">
          <mxGeometry x="794" y="980" width="60" height="30" as="geometry" />
        </mxCell>
        <mxCell id="sk3sKBH4ImnyXqfGFYbc-13" value="Se ingresa W" style="text;html=1;align=center;verticalAlign=middle;whiteSpace=wrap;rounded=0;" vertex="1" parent="1">
          <mxGeometry x="800" y="785" width="60" height="30" as="geometry" />
        </mxCell>
        <mxCell id="sk3sKBH4ImnyXqfGFYbc-18" value="" style="edgeStyle=orthogonalEdgeStyle;rounded=0;orthogonalLoop=1;jettySize=auto;html=1;" edge="1" parent="1" source="sk3sKBH4ImnyXqfGFYbc-14" target="sk3sKBH4ImnyXqfGFYbc-17">
          <mxGeometry relative="1" as="geometry" />
        </mxCell>
        <mxCell id="sk3sKBH4ImnyXqfGFYbc-14" value="Evaluando Movimiento VÃ¡lido" style="rounded=1;whiteSpace=wrap;html=1;" vertex="1" parent="1">
          <mxGeometry x="170" y="860" width="120" height="60" as="geometry" />
        </mxCell>
        <mxCell id="sk3sKBH4ImnyXqfGFYbc-15" style="edgeStyle=orthogonalEdgeStyle;rounded=0;orthogonalLoop=1;jettySize=auto;html=1;entryX=0.34;entryY=0.948;entryDx=0;entryDy=0;entryPerimeter=0;" edge="1" parent="1" source="Cp2rk2IzvF5nBZMvR7EI-15" target="sk3sKBH4ImnyXqfGFYbc-14">
          <mxGeometry relative="1" as="geometry" />
        </mxCell>
        <mxCell id="sk3sKBH4ImnyXqfGFYbc-26" style="edgeStyle=orthogonalEdgeStyle;rounded=0;orthogonalLoop=1;jettySize=auto;html=1;" edge="1" parent="1" source="sk3sKBH4ImnyXqfGFYbc-16" target="sk3sKBH4ImnyXqfGFYbc-27">
          <mxGeometry relative="1" as="geometry">
            <mxPoint x="880" y="1290" as="targetPoint" />
            <Array as="points">
              <mxPoint x="456" y="1150" />
              <mxPoint x="1050" y="1150" />
              <mxPoint x="1050" y="1295" />
            </Array>
          </mxGeometry>
        </mxCell>
        <mxCell id="sk3sKBH4ImnyXqfGFYbc-16" value="Movimiento InvÃ¡lido" style="rounded=1;whiteSpace=wrap;html=1;" vertex="1" parent="1">
          <mxGeometry x="396" y="955" width="120" height="60" as="geometry" />
        </mxCell>
        <mxCell id="sk3sKBH4ImnyXqfGFYbc-19" style="edgeStyle=orthogonalEdgeStyle;rounded=0;orthogonalLoop=1;jettySize=auto;html=1;entryX=0;entryY=0.75;entryDx=0;entryDy=0;" edge="1" parent="1" source="sk3sKBH4ImnyXqfGFYbc-17" target="sk3sKBH4ImnyXqfGFYbc-16">
          <mxGeometry relative="1" as="geometry">
            <Array as="points">
              <mxPoint x="363" y="935" />
              <mxPoint x="376" y="935" />
              <mxPoint x="376" y="1000" />
            </Array>
          </mxGeometry>
        </mxCell>
        <mxCell id="sk3sKBH4ImnyXqfGFYbc-20" style="edgeStyle=orthogonalEdgeStyle;rounded=0;orthogonalLoop=1;jettySize=auto;html=1;" edge="1" parent="1" source="sk3sKBH4ImnyXqfGFYbc-17" target="Cp2rk2IzvF5nBZMvR7EI-8">
          <mxGeometry relative="1" as="geometry" />
        </mxCell>
        <mxCell id="sk3sKBH4ImnyXqfGFYbc-17" value="" style="rhombus;whiteSpace=wrap;html=1;" vertex="1" parent="1">
          <mxGeometry x="336" y="865" width="54" height="50" as="geometry" />
        </mxCell>
        <mxCell id="sk3sKBH4ImnyXqfGFYbc-21" value="falso" style="text;html=1;align=center;verticalAlign=middle;whiteSpace=wrap;rounded=0;" vertex="1" parent="1">
          <mxGeometry x="370" y="915" width="60" height="30" as="geometry" />
        </mxCell>
        <mxCell id="sk3sKBH4ImnyXqfGFYbc-22" value="true" style="text;html=1;align=center;verticalAlign=middle;whiteSpace=wrap;rounded=0;" vertex="1" parent="1">
          <mxGeometry x="418" y="855" width="60" height="30" as="geometry" />
        </mxCell>
        <mxCell id="sk3sKBH4ImnyXqfGFYbc-25" value="(funcion interna)" style="text;html=1;align=center;verticalAlign=middle;whiteSpace=wrap;rounded=0;" vertex="1" parent="1">
          <mxGeometry x="286" y="855" width="60" height="30" as="geometry" />
        </mxCell>
        <mxCell id="sk3sKBH4ImnyXqfGFYbc-27" value="" style="ellipse;whiteSpace=wrap;html=1;aspect=fixed;fillColor=#FFFFFF;" vertex="1" parent="1">
          <mxGeometry x="1470" y="1280" width="30" height="30" as="geometry" />
        </mxCell>
        <mxCell id="sk3sKBH4ImnyXqfGFYbc-28" value="" style="ellipse;whiteSpace=wrap;html=1;aspect=fixed;fillColor=#000000;" vertex="1" parent="1">
          <mxGeometry x="1475" y="1285" width="20" height="20" as="geometry" />
        </mxCell>
        <mxCell id="sk3sKBH4ImnyXqfGFYbc-35" style="edgeStyle=orthogonalEdgeStyle;rounded=0;orthogonalLoop=1;jettySize=auto;html=1;entryX=0.5;entryY=0;entryDx=0;entryDy=0;" edge="1" parent="1" source="sk3sKBH4ImnyXqfGFYbc-30" target="sk3sKBH4ImnyXqfGFYbc-33">
          <mxGeometry relative="1" as="geometry">
            <mxPoint x="1197" y="1020" as="targetPoint" />
          </mxGeometry>
        </mxCell>
        <mxCell id="sk3sKBH4ImnyXqfGFYbc-30" value="" style="rhombus;whiteSpace=wrap;html=1;" vertex="1" parent="1">
          <mxGeometry x="1170" y="935" width="54" height="50" as="geometry" />
        </mxCell>
        <mxCell id="sk3sKBH4ImnyXqfGFYbc-37" style="edgeStyle=orthogonalEdgeStyle;rounded=0;orthogonalLoop=1;jettySize=auto;html=1;entryX=0.5;entryY=0;entryDx=0;entryDy=0;" edge="1" parent="1" source="sk3sKBH4ImnyXqfGFYbc-33" target="sk3sKBH4ImnyXqfGFYbc-36">
          <mxGeometry relative="1" as="geometry" />
        </mxCell>
        <mxCell id="sk3sKBH4ImnyXqfGFYbc-33" value="" style="rhombus;whiteSpace=wrap;html=1;" vertex="1" parent="1">
          <mxGeometry x="1170" y="1090" width="54" height="50" as="geometry" />
        </mxCell>
        <mxCell id="sk3sKBH4ImnyXqfGFYbc-40" style="edgeStyle=orthogonalEdgeStyle;rounded=0;orthogonalLoop=1;jettySize=auto;html=1;entryX=0.5;entryY=0;entryDx=0;entryDy=0;" edge="1" parent="1" source="sk3sKBH4ImnyXqfGFYbc-36" target="sk3sKBH4ImnyXqfGFYbc-27">
          <mxGeometry relative="1" as="geometry" />
        </mxCell>
        <mxCell id="sk3sKBH4ImnyXqfGFYbc-36" value="" style="rhombus;whiteSpace=wrap;html=1;" vertex="1" parent="1">
          <mxGeometry x="1186" y="1155" width="54" height="50" as="geometry" />
        </mxCell>
        <mxCell id="sk3sKBH4ImnyXqfGFYbc-41" value="Salida sin cambios" style="text;html=1;align=center;verticalAlign=middle;whiteSpace=wrap;rounded=0;" vertex="1" parent="1">
          <mxGeometry x="610" y="1090" width="60" height="30" as="geometry" />
        </mxCell>
        <mxCell id="sk3sKBH4ImnyXqfGFYbc-43" value="Salida con Retorno false (o 1, para indicar que el tiempo termino)" style="text;html=1;align=center;verticalAlign=middle;whiteSpace=wrap;rounded=0;" vertex="1" parent="1">
          <mxGeometry x="580" y="1350" width="200" height="30" as="geometry" />
        </mxCell>
        <mxCell id="sk3sKBH4ImnyXqfGFYbc-47" value="tipo&amp;nbsp; jugada detectada" style="text;html=1;align=center;verticalAlign=middle;whiteSpace=wrap;rounded=0;" vertex="1" parent="1">
          <mxGeometry x="770" y="1180" width="60" height="30" as="geometry" />
        </mxCell>
        <mxCell id="sk3sKBH4ImnyXqfGFYbc-51" style="edgeStyle=orthogonalEdgeStyle;rounded=0;orthogonalLoop=1;jettySize=auto;html=1;" edge="1" parent="1" source="sk3sKBH4ImnyXqfGFYbc-48" target="Cp2rk2IzvF5nBZMvR7EI-12">
          <mxGeometry relative="1" as="geometry" />
        </mxCell>
        <mxCell id="sk3sKBH4ImnyXqfGFYbc-48" value="jugada = true" style="rounded=1;whiteSpace=wrap;html=1;" vertex="1" parent="1">
          <mxGeometry x="366" y="1165" width="120" height="60" as="geometry" />
        </mxCell>
        <mxCell id="sk3sKBH4ImnyXqfGFYbc-52" value="Evaluar jugada especial" style="text;html=1;align=center;verticalAlign=middle;whiteSpace=wrap;rounded=0;" vertex="1" parent="1">
          <mxGeometry x="524" y="1160" width="60" height="30" as="geometry" />
        </mxCell>
        <mxCell id="sk3sKBH4ImnyXqfGFYbc-56" style="edgeStyle=orthogonalEdgeStyle;rounded=0;orthogonalLoop=1;jettySize=auto;html=1;entryX=0;entryY=0.5;entryDx=0;entryDy=0;" edge="1" parent="1" source="sk3sKBH4ImnyXqfGFYbc-53" target="sk3sKBH4ImnyXqfGFYbc-55">
          <mxGeometry relative="1" as="geometry">
            <Array as="points">
              <mxPoint x="906" y="1199" />
            </Array>
          </mxGeometry>
        </mxCell>
        <mxCell id="sk3sKBH4ImnyXqfGFYbc-57" style="edgeStyle=orthogonalEdgeStyle;rounded=0;orthogonalLoop=1;jettySize=auto;html=1;entryX=0;entryY=0;entryDx=0;entryDy=0;" edge="1" parent="1" source="sk3sKBH4ImnyXqfGFYbc-53" target="sk3sKBH4ImnyXqfGFYbc-27">
          <mxGeometry relative="1" as="geometry">
            <Array as="points">
              <mxPoint x="913" y="1310" />
              <mxPoint x="1474" y="1310" />
            </Array>
          </mxGeometry>
        </mxCell>
        <mxCell id="sk3sKBH4ImnyXqfGFYbc-53" value="" style="rhombus;whiteSpace=wrap;html=1;" vertex="1" parent="1">
          <mxGeometry x="886" y="1215" width="54" height="50" as="geometry" />
        </mxCell>
        <mxCell id="sk3sKBH4ImnyXqfGFYbc-59" style="edgeStyle=orthogonalEdgeStyle;rounded=0;orthogonalLoop=1;jettySize=auto;html=1;entryX=0;entryY=0.5;entryDx=0;entryDy=0;" edge="1" parent="1" source="sk3sKBH4ImnyXqfGFYbc-55" target="sk3sKBH4ImnyXqfGFYbc-58">
          <mxGeometry relative="1" as="geometry" />
        </mxCell>
        <mxCell id="sk3sKBH4ImnyXqfGFYbc-55" value="Calculando Pikas" style="rounded=1;whiteSpace=wrap;html=1;" vertex="1" parent="1">
          <mxGeometry x="964" y="1169" width="120" height="60" as="geometry" />
        </mxCell>
        <mxCell id="sk3sKBH4ImnyXqfGFYbc-60" style="edgeStyle=orthogonalEdgeStyle;rounded=0;orthogonalLoop=1;jettySize=auto;html=1;" edge="1" parent="1" source="sk3sKBH4ImnyXqfGFYbc-58">
          <mxGeometry relative="1" as="geometry">
            <mxPoint x="1480" y="1280" as="targetPoint" />
          </mxGeometry>
        </mxCell>
        <mxCell id="sk3sKBH4ImnyXqfGFYbc-61" style="edgeStyle=orthogonalEdgeStyle;rounded=0;orthogonalLoop=1;jettySize=auto;html=1;entryX=0;entryY=0.5;entryDx=0;entryDy=0;" edge="1" parent="1" source="sk3sKBH4ImnyXqfGFYbc-58" target="sk3sKBH4ImnyXqfGFYbc-62">
          <mxGeometry relative="1" as="geometry">
            <mxPoint x="1137" y="1350" as="targetPoint" />
            <Array as="points">
              <mxPoint x="1137" y="1330" />
              <mxPoint x="1184" y="1330" />
              <mxPoint x="1184" y="1298" />
              <mxPoint x="1180" y="1298" />
              <mxPoint x="1180" y="1350" />
            </Array>
          </mxGeometry>
        </mxCell>
        <mxCell id="sk3sKBH4ImnyXqfGFYbc-58" value="" style="rhombus;whiteSpace=wrap;html=1;" vertex="1" parent="1">
          <mxGeometry x="1110" y="1225" width="54" height="50" as="geometry" />
        </mxCell>
        <mxCell id="sk3sKBH4ImnyXqfGFYbc-64" style="edgeStyle=orthogonalEdgeStyle;rounded=0;orthogonalLoop=1;jettySize=auto;html=1;entryX=0;entryY=1;entryDx=0;entryDy=0;" edge="1" parent="1" source="sk3sKBH4ImnyXqfGFYbc-62" target="sk3sKBH4ImnyXqfGFYbc-27">
          <mxGeometry relative="1" as="geometry" />
        </mxCell>
        <mxCell id="sk3sKBH4ImnyXqfGFYbc-62" value="jugada = false" style="rounded=1;whiteSpace=wrap;html=1;container=1;" vertex="1" parent="1">
          <mxGeometry x="1270" y="1320" width="120" height="60" as="geometry" />
        </mxCell>
        <mxCell id="sk3sKBH4ImnyXqfGFYbc-63" value="No hay pikas" style="text;html=1;align=center;verticalAlign=middle;whiteSpace=wrap;rounded=0;" vertex="1" parent="1">
          <mxGeometry x="1170" y="1350" width="60" height="30" as="geometry" />
        </mxCell>
        <mxCell id="sk3sKBH4ImnyXqfGFYbc-65" value="&lt;font style=&quot;font-size: 72px;&quot;&gt;PROTOTIPO SENCILLO&lt;/font&gt;" style="text;html=1;align=center;verticalAlign=middle;whiteSpace=wrap;rounded=0;rotation=0;" vertex="1" parent="1">
          <mxGeometry x="210" y="1570" width="1052" height="238" as="geometry" />
        </mxCell>
        <mxCell id="sk3sKBH4ImnyXqfGFYbc-66" value="&lt;font style=&quot;font-size: 72px;&quot;&gt;MAQUINA DE ESTADOS&lt;/font&gt;" style="text;html=1;align=center;verticalAlign=middle;whiteSpace=wrap;rounded=0;rotation=0;" vertex="1" parent="1">
          <mxGeometry x="144" y="370" width="1052" height="238" as="geometry" />
        </mxCell>
      </root>
    </mxGraphModel>
  </diagram>
</mxfile>
